<?xml version="1.0" standalone="no"?>
<!DOCTYPE svg PUBLIC "-//W3C//DTD SVG 20010904//EN"
 "http://www.w3.org/TR/2001/REC-SVG-20010904/DTD/svg10.dtd">
<svg version="1.0" xmlns="http://www.w3.org/2000/svg"
 width="175.000000pt" height="175.000000pt" viewBox="0 0 175.000000 175.000000"
 preserveAspectRatio="xMidYMid meet">
<metadata>
Created by potrace 1.11, written by Peter Selinger 2001-2013
</metadata>
<g transform="translate(0.000000,175.000000) scale(0.100000,-0.100000)"
fill="#000000" stroke="none">
<path d="M758 1510 c-26 -11 -84 -42 -129 -70 -44 -27 -84 -50 -89 -50 -12 0
-130 -132 -130 -145 0 -6 -13 -21 -30 -33 -16 -13 -30 -27 -30 -32 0 -5 -13
-30 -30 -56 -16 -26 -40 -79 -52 -118 -12 -39 -30 -80 -40 -90 -10 -11 -27
-43 -37 -70 -57 -152 -91 -207 -141 -229 l-25 -11 27 -4 c15 -2 36 2 47 7 43
23 57 14 71 -44 7 -30 17 -55 21 -55 5 0 18 23 30 50 12 28 26 50 31 50 6 0
27 -13 48 -30 38 -30 90 -40 90 -17 0 6 -11 25 -25 41 -52 60 -19 87 53 43 56
-36 150 -77 219 -97 51 -15 204 -37 224 -32 3 0 53 4 110 7 57 4 121 8 142 9
21 2 40 -1 43 -5 7 -12 -7 -89 -17 -89 -5 0 -9 9 -9 20 0 44 -38 10 -49 -43
-6 -26 -12 -32 -36 -35 -101 -9 -119 -23 -62 -47 19 -8 39 -21 47 -30 11 -13
7 -20 -24 -49 -52 -50 -48 -59 24 -51 l61 7 12 -31 c6 -17 15 -31 20 -31 4 0
16 19 26 43 21 48 46 73 113 112 39 22 53 38 79 92 25 53 48 145 49 199 0 6
37 36 81 65 109 71 175 140 194 203 27 90 20 204 -26 386 -13 53 -96 131 -164
154 -22 7 -56 19 -75 26 -37 12 -109 31 -198 51 -29 6 -68 18 -85 27 -24 12
-67 17 -172 19 -121 3 -146 0 -187 -17z"/>
</g>
</svg>
